<svg xmlns="http://www.w3.org/2000/svg" width="960" height="640" viewBox="0 0 960 640">
<rect width="100%" height="100%" fill="#f8fafc"/>
<text x="480.0" y="38" text-anchor="middle" fill="#0f172a" font-family="Arial, Helvetica, sans-serif" font-size="28" font-weight="700">CartPole Q Error vs TT Rank</text>
<text x="480.0" y="64" text-anchor="middle" fill="#475569" font-family="Arial, Helvetica, sans-serif" font-size="15">Relative Frobenius reconstruction error for the empirical Q tensor</text>
<line x1="96" y1="544.00" x2="912" y2="544.00" stroke="#cbd5e1" stroke-width="1"/>
<text x="84" y="549.00" text-anchor="end" fill="#334155" font-family="Arial, Helvetica, sans-serif" font-size="13">0.04</text>
<line x1="96" y1="430.50" x2="912" y2="430.50" stroke="#cbd5e1" stroke-width="1"/>
<text x="84" y="435.50" text-anchor="end" fill="#334155" font-family="Arial, Helvetica, sans-serif" font-size="13">0.26</text>
<line x1="96" y1="317.00" x2="912" y2="317.00" stroke="#cbd5e1" stroke-width="1"/>
<text x="84" y="322.00" text-anchor="end" fill="#334155" font-family="Arial, Helvetica, sans-serif" font-size="13">0.49</text>
<line x1="96" y1="203.50" x2="912" y2="203.50" stroke="#cbd5e1" stroke-width="1"/>
<text x="84" y="208.50" text-anchor="end" fill="#334155" font-family="Arial, Helvetica, sans-serif" font-size="13">0.71</text>
<line x1="96" y1="90.00" x2="912" y2="90.00" stroke="#cbd5e1" stroke-width="1"/>
<text x="84" y="95.00" text-anchor="end" fill="#334155" font-family="Arial, Helvetica, sans-serif" font-size="13">0.93</text>
<line x1="96" y1="90" x2="96" y2="544" stroke="#0f172a" stroke-width="2"/>
<line x1="96" y1="544" x2="912" y2="544" stroke="#0f172a" stroke-width="2"/>
<line x1="96.00" y1="544" x2="96.00" y2="550" stroke="#0f172a" stroke-width="1.5"/>
<text x="96.00" y="572" text-anchor="middle" fill="#334155" font-family="Arial, Helvetica, sans-serif" font-size="13">1</text>
<line x1="259.20" y1="544" x2="259.20" y2="550" stroke="#0f172a" stroke-width="1.5"/>
<text x="259.20" y="572" text-anchor="middle" fill="#334155" font-family="Arial, Helvetica, sans-serif" font-size="13">2</text>
<line x1="422.40" y1="544" x2="422.40" y2="550" stroke="#0f172a" stroke-width="1.5"/>
<text x="422.40" y="572" text-anchor="middle" fill="#334155" font-family="Arial, Helvetica, sans-serif" font-size="13">4</text>
<line x1="585.60" y1="544" x2="585.60" y2="550" stroke="#0f172a" stroke-width="1.5"/>
<text x="585.60" y="572" text-anchor="middle" fill="#334155" font-family="Arial, Helvetica, sans-serif" font-size="13">8</text>
<line x1="748.80" y1="544" x2="748.80" y2="550" stroke="#0f172a" stroke-width="1.5"/>
<text x="748.80" y="572" text-anchor="middle" fill="#334155" font-family="Arial, Helvetica, sans-serif" font-size="13">16</text>
<line x1="912.00" y1="544" x2="912.00" y2="550" stroke="#0f172a" stroke-width="1.5"/>
<text x="912.00" y="572" text-anchor="middle" fill="#334155" font-family="Arial, Helvetica, sans-serif" font-size="13">32</text>
<polyline points="96.00,121.31 259.20,155.85 422.40,189.76 585.60,276.71 748.80,369.11 912.00,478.84" fill="none" stroke="#2563eb" stroke-width="4" stroke-linecap="round" stroke-linejoin="round"/>
<circle cx="96.00" cy="121.31" r="5.5" fill="#2563eb" stroke="#ffffff" stroke-width="2"/>
<circle cx="259.20" cy="155.85" r="5.5" fill="#2563eb" stroke="#ffffff" stroke-width="2"/>
<circle cx="422.40" cy="189.76" r="5.5" fill="#2563eb" stroke="#ffffff" stroke-width="2"/>
<circle cx="585.60" cy="276.71" r="5.5" fill="#2563eb" stroke="#ffffff" stroke-width="2"/>
<circle cx="748.80" cy="369.11" r="5.5" fill="#2563eb" stroke="#ffffff" stroke-width="2"/>
<circle cx="912.00" cy="478.84" r="5.5" fill="#2563eb" stroke="#ffffff" stroke-width="2"/>
<polyline points="96.00,155.03 259.20,198.38 422.40,241.32 585.60,341.83 748.80,424.80 912.00,512.69" fill="none" stroke="#dc2626" stroke-width="4" stroke-linecap="round" stroke-linejoin="round" stroke-dasharray="10 8"/>
<circle cx="96.00" cy="155.03" r="5.5" fill="#dc2626" stroke="#ffffff" stroke-width="2"/>
<circle cx="259.20" cy="198.38" r="5.5" fill="#dc2626" stroke="#ffffff" stroke-width="2"/>
<circle cx="422.40" cy="241.32" r="5.5" fill="#dc2626" stroke="#ffffff" stroke-width="2"/>
<circle cx="585.60" cy="341.83" r="5.5" fill="#dc2626" stroke="#ffffff" stroke-width="2"/>
<circle cx="748.80" cy="424.80" r="5.5" fill="#dc2626" stroke="#ffffff" stroke-width="2"/>
<circle cx="912.00" cy="512.69" r="5.5" fill="#dc2626" stroke="#ffffff" stroke-width="2"/>
<line x1="104" y1="84" x2="132" y2="84" stroke="#2563eb" stroke-width="4"/>
<circle cx="118" cy="84" r="4.5" fill="#2563eb" stroke="#ffffff" stroke-width="1.5"/>
<text x="142" y="89" text-anchor="start" fill="#0f172a" font-family="Arial, Helvetica, sans-serif" font-size="13">All bins</text>
<line x1="104" y1="108" x2="132" y2="108" stroke="#dc2626" stroke-width="4" stroke-dasharray="10 8"/>
<circle cx="118" cy="108" r="4.5" fill="#dc2626" stroke="#ffffff" stroke-width="1.5"/>
<text x="142" y="113" text-anchor="start" fill="#0f172a" font-family="Arial, Helvetica, sans-serif" font-size="13">Visited bins only</text>
<text x="504.00" y="614" text-anchor="middle" fill="#0f172a" font-family="Arial, Helvetica, sans-serif" font-size="16" font-weight="700">TT rank</text>
<text x="28" y="317.00" text-anchor="middle" fill="#0f172a" font-family="Arial, Helvetica, sans-serif" font-size="16" font-weight="700" transform="rotate(-90 28 317.00)">Relative Frobenius error</text>
</svg>