<svg xmlns="http://www.w3.org/2000/svg" width="960" height="640" viewBox="0 0 960 640">
<rect width="100%" height="100%" fill="#f8fafc"/>
<text x="480.0" y="38" text-anchor="middle" fill="#0f172a" font-family="Arial, Helvetica, sans-serif" font-size="28" font-weight="700">Rank Needs Across Training Stages</text>
<text x="480.0" y="64" text-anchor="middle" fill="#475569" font-family="Arial, Helvetica, sans-serif" font-size="15">Observed-bin Q reconstruction error in early, middle, and late PPO training</text>
<line x1="96" y1="544.00" x2="912" y2="544.00" stroke="#cbd5e1" stroke-width="1"/>
<text x="84" y="549.00" text-anchor="end" fill="#334155" font-family="Arial, Helvetica, sans-serif" font-size="13">0.00</text>
<line x1="96" y1="430.50" x2="912" y2="430.50" stroke="#cbd5e1" stroke-width="1"/>
<text x="84" y="435.50" text-anchor="end" fill="#334155" font-family="Arial, Helvetica, sans-serif" font-size="13">0.21</text>
<line x1="96" y1="317.00" x2="912" y2="317.00" stroke="#cbd5e1" stroke-width="1"/>
<text x="84" y="322.00" text-anchor="end" fill="#334155" font-family="Arial, Helvetica, sans-serif" font-size="13">0.42</text>
<line x1="96" y1="203.50" x2="912" y2="203.50" stroke="#cbd5e1" stroke-width="1"/>
<text x="84" y="208.50" text-anchor="end" fill="#334155" font-family="Arial, Helvetica, sans-serif" font-size="13">0.64</text>
<line x1="96" y1="90.00" x2="912" y2="90.00" stroke="#cbd5e1" stroke-width="1"/>
<text x="84" y="95.00" text-anchor="end" fill="#334155" font-family="Arial, Helvetica, sans-serif" font-size="13">0.85</text>
<line x1="96" y1="90" x2="96" y2="544" stroke="#0f172a" stroke-width="2"/>
<line x1="96" y1="544" x2="912" y2="544" stroke="#0f172a" stroke-width="2"/>
<line x1="96.00" y1="544" x2="96.00" y2="550" stroke="#0f172a" stroke-width="1.5"/>
<text x="96.00" y="572" text-anchor="middle" fill="#334155" font-family="Arial, Helvetica, sans-serif" font-size="13">1</text>
<line x1="259.20" y1="544" x2="259.20" y2="550" stroke="#0f172a" stroke-width="1.5"/>
<text x="259.20" y="572" text-anchor="middle" fill="#334155" font-family="Arial, Helvetica, sans-serif" font-size="13">2</text>
<line x1="422.40" y1="544" x2="422.40" y2="550" stroke="#0f172a" stroke-width="1.5"/>
<text x="422.40" y="572" text-anchor="middle" fill="#334155" font-family="Arial, Helvetica, sans-serif" font-size="13">4</text>
<line x1="585.60" y1="544" x2="585.60" y2="550" stroke="#0f172a" stroke-width="1.5"/>
<text x="585.60" y="572" text-anchor="middle" fill="#334155" font-family="Arial, Helvetica, sans-serif" font-size="13">8</text>
<line x1="748.80" y1="544" x2="748.80" y2="550" stroke="#0f172a" stroke-width="1.5"/>
<text x="748.80" y="572" text-anchor="middle" fill="#334155" font-family="Arial, Helvetica, sans-serif" font-size="13">16</text>
<line x1="912.00" y1="544" x2="912.00" y2="550" stroke="#0f172a" stroke-width="1.5"/>
<text x="912.00" y="572" text-anchor="middle" fill="#334155" font-family="Arial, Helvetica, sans-serif" font-size="13">32</text>
<polyline points="96.00,158.32 259.20,230.17 422.40,288.51 585.60,369.49 748.80,502.88 912.00,544.00" fill="none" stroke="#2563eb" stroke-width="4" stroke-linecap="round" stroke-linejoin="round"/>
<circle cx="96.00" cy="158.32" r="5.5" fill="#2563eb" stroke="#ffffff" stroke-width="2"/>
<circle cx="259.20" cy="230.17" r="5.5" fill="#2563eb" stroke="#ffffff" stroke-width="2"/>
<circle cx="422.40" cy="288.51" r="5.5" fill="#2563eb" stroke="#ffffff" stroke-width="2"/>
<circle cx="585.60" cy="369.49" r="5.5" fill="#2563eb" stroke="#ffffff" stroke-width="2"/>
<circle cx="748.80" cy="502.88" r="5.5" fill="#2563eb" stroke="#ffffff" stroke-width="2"/>
<circle cx="912.00" cy="544.00" r="5.5" fill="#2563eb" stroke="#ffffff" stroke-width="2"/>
<polyline points="96.00,150.57 259.20,225.31 422.40,291.16 585.60,365.19 748.80,471.61 912.00,544.00" fill="none" stroke="#16a34a" stroke-width="4" stroke-linecap="round" stroke-linejoin="round"/>
<circle cx="96.00" cy="150.57" r="5.5" fill="#16a34a" stroke="#ffffff" stroke-width="2"/>
<circle cx="259.20" cy="225.31" r="5.5" fill="#16a34a" stroke="#ffffff" stroke-width="2"/>
<circle cx="422.40" cy="291.16" r="5.5" fill="#16a34a" stroke="#ffffff" stroke-width="2"/>
<circle cx="585.60" cy="365.19" r="5.5" fill="#16a34a" stroke="#ffffff" stroke-width="2"/>
<circle cx="748.80" cy="471.61" r="5.5" fill="#16a34a" stroke="#ffffff" stroke-width="2"/>
<circle cx="912.00" cy="544.00" r="5.5" fill="#16a34a" stroke="#ffffff" stroke-width="2"/>
<polyline points="96.00,123.63 259.20,178.45 422.40,214.19 585.60,315.86 748.80,410.49 912.00,502.65" fill="none" stroke="#dc2626" stroke-width="4" stroke-linecap="round" stroke-linejoin="round"/>
<circle cx="96.00" cy="123.63" r="5.5" fill="#dc2626" stroke="#ffffff" stroke-width="2"/>
<circle cx="259.20" cy="178.45" r="5.5" fill="#dc2626" stroke="#ffffff" stroke-width="2"/>
<circle cx="422.40" cy="214.19" r="5.5" fill="#dc2626" stroke="#ffffff" stroke-width="2"/>
<circle cx="585.60" cy="315.86" r="5.5" fill="#dc2626" stroke="#ffffff" stroke-width="2"/>
<circle cx="748.80" cy="410.49" r="5.5" fill="#dc2626" stroke="#ffffff" stroke-width="2"/>
<circle cx="912.00" cy="502.65" r="5.5" fill="#dc2626" stroke="#ffffff" stroke-width="2"/>
<line x1="104" y1="84" x2="132" y2="84" stroke="#2563eb" stroke-width="4"/>
<circle cx="118" cy="84" r="4.5" fill="#2563eb" stroke="#ffffff" stroke-width="1.5"/>
<text x="142" y="89" text-anchor="start" fill="#0f172a" font-family="Arial, Helvetica, sans-serif" font-size="13">Early</text>
<line x1="104" y1="108" x2="132" y2="108" stroke="#16a34a" stroke-width="4"/>
<circle cx="118" cy="108" r="4.5" fill="#16a34a" stroke="#ffffff" stroke-width="1.5"/>
<text x="142" y="113" text-anchor="start" fill="#0f172a" font-family="Arial, Helvetica, sans-serif" font-size="13">Middle</text>
<line x1="104" y1="132" x2="132" y2="132" stroke="#dc2626" stroke-width="4"/>
<circle cx="118" cy="132" r="4.5" fill="#dc2626" stroke="#ffffff" stroke-width="1.5"/>
<text x="142" y="137" text-anchor="start" fill="#0f172a" font-family="Arial, Helvetica, sans-serif" font-size="13">Late</text>
<text x="504.00" y="614" text-anchor="middle" fill="#0f172a" font-family="Arial, Helvetica, sans-serif" font-size="16" font-weight="700">TT rank</text>
<text x="28" y="317.00" text-anchor="middle" fill="#0f172a" font-family="Arial, Helvetica, sans-serif" font-size="16" font-weight="700" transform="rotate(-90 28 317.00)">Observed relative error</text>
</svg>