<svg xmlns="http://www.w3.org/2000/svg" width="960" height="640" viewBox="0 0 960 640">
<rect width="100%" height="100%" fill="#f8fafc"/>
<text x="480.0" y="38" text-anchor="middle" fill="#0f172a" font-family="Arial, Helvetica, sans-serif" font-size="28" font-weight="700">V, Q, and A Low-Rank Comparison</text>
<text x="480.0" y="64" text-anchor="middle" fill="#475569" font-family="Arial, Helvetica, sans-serif" font-size="15">Observed-bin reconstruction error for value, Q, and advantage tensors</text>
<line x1="96" y1="544.00" x2="912" y2="544.00" stroke="#cbd5e1" stroke-width="1"/>
<text x="84" y="549.00" text-anchor="end" fill="#334155" font-family="Arial, Helvetica, sans-serif" font-size="13">0.00</text>
<line x1="96" y1="430.50" x2="912" y2="430.50" stroke="#cbd5e1" stroke-width="1"/>
<text x="84" y="435.50" text-anchor="end" fill="#334155" font-family="Arial, Helvetica, sans-serif" font-size="13">0.33</text>
<line x1="96" y1="317.00" x2="912" y2="317.00" stroke="#cbd5e1" stroke-width="1"/>
<text x="84" y="322.00" text-anchor="end" fill="#334155" font-family="Arial, Helvetica, sans-serif" font-size="13">0.65</text>
<line x1="96" y1="203.50" x2="912" y2="203.50" stroke="#cbd5e1" stroke-width="1"/>
<text x="84" y="208.50" text-anchor="end" fill="#334155" font-family="Arial, Helvetica, sans-serif" font-size="13">0.98</text>
<line x1="96" y1="90.00" x2="912" y2="90.00" stroke="#cbd5e1" stroke-width="1"/>
<text x="84" y="95.00" text-anchor="end" fill="#334155" font-family="Arial, Helvetica, sans-serif" font-size="13">1.31</text>
<line x1="96" y1="90" x2="96" y2="544" stroke="#0f172a" stroke-width="2"/>
<line x1="96" y1="544" x2="912" y2="544" stroke="#0f172a" stroke-width="2"/>
<line x1="96.00" y1="544" x2="96.00" y2="550" stroke="#0f172a" stroke-width="1.5"/>
<text x="96.00" y="572" text-anchor="middle" fill="#334155" font-family="Arial, Helvetica, sans-serif" font-size="13">1</text>
<line x1="259.20" y1="544" x2="259.20" y2="550" stroke="#0f172a" stroke-width="1.5"/>
<text x="259.20" y="572" text-anchor="middle" fill="#334155" font-family="Arial, Helvetica, sans-serif" font-size="13">2</text>
<line x1="422.40" y1="544" x2="422.40" y2="550" stroke="#0f172a" stroke-width="1.5"/>
<text x="422.40" y="572" text-anchor="middle" fill="#334155" font-family="Arial, Helvetica, sans-serif" font-size="13">4</text>
<line x1="585.60" y1="544" x2="585.60" y2="550" stroke="#0f172a" stroke-width="1.5"/>
<text x="585.60" y="572" text-anchor="middle" fill="#334155" font-family="Arial, Helvetica, sans-serif" font-size="13">8</text>
<line x1="748.80" y1="544" x2="748.80" y2="550" stroke="#0f172a" stroke-width="1.5"/>
<text x="748.80" y="572" text-anchor="middle" fill="#334155" font-family="Arial, Helvetica, sans-serif" font-size="13">16</text>
<line x1="912.00" y1="544" x2="912.00" y2="550" stroke="#0f172a" stroke-width="1.5"/>
<text x="912.00" y="572" text-anchor="middle" fill="#334155" font-family="Arial, Helvetica, sans-serif" font-size="13">32</text>
<polyline points="96.00,271.61 259.20,308.60 422.40,340.94 585.60,409.46 748.80,470.68 912.00,527.51" fill="none" stroke="#7c3aed" stroke-width="4" stroke-linecap="round" stroke-linejoin="round"/>
<circle cx="96.00" cy="271.61" r="5.5" fill="#7c3aed" stroke="#ffffff" stroke-width="2"/>
<circle cx="259.20" cy="308.60" r="5.5" fill="#7c3aed" stroke="#ffffff" stroke-width="2"/>
<circle cx="422.40" cy="340.94" r="5.5" fill="#7c3aed" stroke="#ffffff" stroke-width="2"/>
<circle cx="585.60" cy="409.46" r="5.5" fill="#7c3aed" stroke="#ffffff" stroke-width="2"/>
<circle cx="748.80" cy="470.68" r="5.5" fill="#7c3aed" stroke="#ffffff" stroke-width="2"/>
<circle cx="912.00" cy="527.51" r="5.5" fill="#7c3aed" stroke="#ffffff" stroke-width="2"/>
<polyline points="96.00,263.96 259.20,293.61 422.40,322.99 585.60,391.73 748.80,448.48 912.00,508.59" fill="none" stroke="#2563eb" stroke-width="4" stroke-linecap="round" stroke-linejoin="round"/>
<circle cx="96.00" cy="263.96" r="5.5" fill="#2563eb" stroke="#ffffff" stroke-width="2"/>
<circle cx="259.20" cy="293.61" r="5.5" fill="#2563eb" stroke="#ffffff" stroke-width="2"/>
<circle cx="422.40" cy="322.99" r="5.5" fill="#2563eb" stroke="#ffffff" stroke-width="2"/>
<circle cx="585.60" cy="391.73" r="5.5" fill="#2563eb" stroke="#ffffff" stroke-width="2"/>
<circle cx="748.80" cy="448.48" r="5.5" fill="#2563eb" stroke="#ffffff" stroke-width="2"/>
<circle cx="912.00" cy="508.59" r="5.5" fill="#2563eb" stroke="#ffffff" stroke-width="2"/>
<polyline points="96.00,152.15 259.20,150.82 422.40,131.70 585.60,122.41 748.80,223.69 912.00,398.70" fill="none" stroke="#ea580c" stroke-width="4" stroke-linecap="round" stroke-linejoin="round"/>
<circle cx="96.00" cy="152.15" r="5.5" fill="#ea580c" stroke="#ffffff" stroke-width="2"/>
<circle cx="259.20" cy="150.82" r="5.5" fill="#ea580c" stroke="#ffffff" stroke-width="2"/>
<circle cx="422.40" cy="131.70" r="5.5" fill="#ea580c" stroke="#ffffff" stroke-width="2"/>
<circle cx="585.60" cy="122.41" r="5.5" fill="#ea580c" stroke="#ffffff" stroke-width="2"/>
<circle cx="748.80" cy="223.69" r="5.5" fill="#ea580c" stroke="#ffffff" stroke-width="2"/>
<circle cx="912.00" cy="398.70" r="5.5" fill="#ea580c" stroke="#ffffff" stroke-width="2"/>
<line x1="104" y1="84" x2="132" y2="84" stroke="#7c3aed" stroke-width="4"/>
<circle cx="118" cy="84" r="4.5" fill="#7c3aed" stroke="#ffffff" stroke-width="1.5"/>
<text x="142" y="89" text-anchor="start" fill="#0f172a" font-family="Arial, Helvetica, sans-serif" font-size="13">V(s)</text>
<line x1="104" y1="108" x2="132" y2="108" stroke="#2563eb" stroke-width="4"/>
<circle cx="118" cy="108" r="4.5" fill="#2563eb" stroke="#ffffff" stroke-width="1.5"/>
<text x="142" y="113" text-anchor="start" fill="#0f172a" font-family="Arial, Helvetica, sans-serif" font-size="13">Q(s,a)</text>
<line x1="104" y1="132" x2="132" y2="132" stroke="#ea580c" stroke-width="4"/>
<circle cx="118" cy="132" r="4.5" fill="#ea580c" stroke="#ffffff" stroke-width="1.5"/>
<text x="142" y="137" text-anchor="start" fill="#0f172a" font-family="Arial, Helvetica, sans-serif" font-size="13">A(s,a)</text>
<text x="504.00" y="614" text-anchor="middle" fill="#0f172a" font-family="Arial, Helvetica, sans-serif" font-size="16" font-weight="700">TT rank</text>
<text x="28" y="317.00" text-anchor="middle" fill="#0f172a" font-family="Arial, Helvetica, sans-serif" font-size="16" font-weight="700" transform="rotate(-90 28 317.00)">Observed relative error</text>
</svg>